
<svg xmlns="http://www.w3.org/2000/svg" viewBox="0 0 50 50" width="500" height="500">
  <path d="M25 2C24.449219 2 24 2.449219 24 3C24 3.550781 24.449219 4 25 4C25.550781 4 26 3.550781 26 3C26 2.449219 25.550781 2 25 2 Z M 21.5 2.0625C20.671875 2.0625 20 2.734375 20 3.5625C20 4.390625 20.671875 5.0625 21.5 5.0625C22.328125 5.0625 23 4.390625 23 3.5625C23 2.734375 22.328125 2.0625 21.5 2.0625 Z M 28.5 2.0625C27.671875 2.0625 27 2.734375 27 3.5625C27 4.390625 27.671875 5.0625 28.5 5.0625C29.328125 5.0625 30 4.390625 30 3.5625C30 2.734375 29.328125 2.0625 28.5 2.0625 Z M 17.5 4.0625C16.671875 4.0625 16 4.734375 16 5.5625C16 6.390625 16.671875 7.0625 17.5 7.0625C18.328125 7.0625 19 6.390625 19 5.5625C19 4.734375 18.328125 4.0625 17.5 4.0625 Z M 32.5 4.0625C31.671875 4.0625 31 4.734375 31 5.5625C31 6.390625 31.671875 7.0625 32.5 7.0625C33.328125 7.0625 34 6.390625 34 5.5625C34 4.734375 33.328125 4.0625 32.5 4.0625 Z M 14.5 7C13.671875 7 13 7.671875 13 8.5C13 9.328125 13.671875 10 14.5 10C15.328125 10 16 9.328125 16 8.5C16 7.671875 15.328125 7 14.5 7 Z M 35.5 7C34.671875 7 34 7.671875 34 8.5C34 9.328125 34.671875 10 35.5 10C36.328125 10 37 9.328125 37 8.5C37 7.671875 36.328125 7 35.5 7 Z M 12.5 11C11.671875 11 11 11.671875 11 12.5C11 13.328125 11.671875 14 12.5 14C13.328125 14 14 13.328125 14 12.5C14 11.671875 13.328125 11 12.5 11 Z M 37.5 11C36.671875 11 36 11.671875 36 12.5C36 13.328125 36.671875 14 37.5 14C38.328125 14 39 13.328125 39 12.5C39 11.671875 38.328125 11 37.5 11 Z M 11.5 15C10.132813 15 9 16.132813 9 17.5C9 18.867188 10.132813 20 11.5 20C12.867188 20 14 18.867188 14 17.5C14 16.132813 12.867188 15 11.5 15 Z M 38.5 15C37.132813 15 36 16.132813 36 17.5C36 18.867188 37.132813 20 38.5 20C39.867188 20 41 18.867188 41 17.5C41 16.132813 39.867188 15 38.5 15 Z M 11.5 17C11.789063 17 12 17.210938 12 17.5C12 17.789063 11.789063 18 11.5 18C11.210938 18 11 17.789063 11 17.5C11 17.210938 11.210938 17 11.5 17 Z M 38.5 17C38.789063 17 39 17.210938 39 17.5C39 17.789063 38.789063 18 38.5 18C38.210938 18 38 17.789063 38 17.5C38 17.210938 38.210938 17 38.5 17 Z M 11.5 21C10.132813 21 9 22.132813 9 23.5C9 24.867188 10.132813 26 11.5 26C12.867188 26 14 24.867188 14 23.5C14 22.132813 12.867188 21 11.5 21 Z M 38.5 21C37.132813 21 36 22.132813 36 23.5C36 24.867188 37.132813 26 38.5 26C39.867188 26 41 24.867188 41 23.5C41 22.132813 39.867188 21 38.5 21 Z M 11.5 23C11.789063 23 12 23.210938 12 23.5C12 23.789063 11.789063 24 11.5 24C11.210938 24 11 23.789063 11 23.5C11 23.210938 11.210938 23 11.5 23 Z M 38.5 23C38.789063 23 39 23.210938 39 23.5C39 23.789063 38.789063 24 38.5 24C38.210938 24 38 23.789063 38 23.5C38 23.210938 38.210938 23 38.5 23 Z M 13.5 27C12.132813 27 11 28.132813 11 29.5C11 30.867188 12.132813 32 13.5 32C14.867188 32 16 30.867188 16 29.5C16 28.132813 14.867188 27 13.5 27 Z M 36.5 27C35.132813 27 34 28.132813 34 29.5C34 30.867188 35.132813 32 36.5 32C37.867188 32 39 30.867188 39 29.5C39 28.132813 37.867188 27 36.5 27 Z M 13.5 29C13.789063 29 14 29.210938 14 29.5C14 29.789063 13.789063 30 13.5 30C13.210938 30 13 29.789063 13 29.5C13 29.210938 13.210938 29 13.5 29 Z M 36.5 29C36.789063 29 37 29.210938 37 29.5C37 29.789063 36.789063 30 36.5 30C36.210938 30 36 29.789063 36 29.5C36 29.210938 36.210938 29 36.5 29 Z M 18 30C16.355469 30 15 31.355469 15 33C15 34.644531 16.355469 36 18 36C19.644531 36 21 34.644531 21 33C21 31.355469 19.644531 30 18 30 Z M 32 30C30.355469 30 29 31.355469 29 33C29 34.644531 30.355469 36 32 36C33.644531 36 35 34.644531 35 33C35 31.355469 33.644531 30 32 30 Z M 25 31C22.800781 31 21 32.800781 21 35C21 36.851563 22.28125 38.398438 24 38.84375L24 39.5625L21.28125 42.28125C20.925781 42.632813 20.886719 43.195313 21.1875 43.59375L24.1875 47.59375C24.375 47.855469 24.679688 48.011719 25 48.011719C25.320313 48.011719 25.625 47.855469 25.8125 47.59375L28.8125 43.59375C29.113281 43.195313 29.074219 42.632813 28.71875 42.28125L26 39.5625L26 38.84375C27.71875 38.398438 29 36.851563 29 35C29 32.800781 27.199219 31 25 31 Z M 18 32C18.5625 32 19 32.4375 19 33C19 33.5625 18.5625 34 18 34C17.4375 34 17 33.5625 17 33C17 32.4375 17.4375 32 18 32 Z M 32 32C32.5625 32 33 32.4375 33 33C33 33.5625 32.5625 34 32 34C31.4375 34 31 33.5625 31 33C31 32.4375 31.4375 32 32 32 Z M 25 33C26.117188 33 27 33.882813 27 35C27 36.050781 26.210938 36.90625 25.1875 37C25.175781 37 25.167969 37 25.15625 37C25.050781 36.984375 24.949219 36.984375 24.84375 37C24.824219 37 24.800781 37.003906 24.78125 37C23.769531 36.890625 23 36.042969 23 35C23 33.882813 23.882813 33 25 33 Z M 25 41.4375L26.65625 43.09375L25 45.3125L23.34375 43.09375Z" />
</svg>