
<svg xmlns="http://www.w3.org/2000/svg" viewBox="0 0 50 50" width="500" height="500">
  <path d="M18.90625 4L17.21875 7.125C16.859375 7.800781 16.398438 8.355469 15.84375 8.78125L16 10.40625C16.277344 14.574219 19.957031 19 25 19C30.042969 19 33.726563 14.574219 34 10.4375L34.21875 8.84375C33.597656 8.402344 33.054688 7.84375 32.6875 7.15625L31.125 4 Z M 13.90625 9.65625L7.75 11.21875C5.335938 11.855469 3.753906 14.054688 4 16.375C5.003906 31.835938 12.703125 44.949219 13.03125 45.5L13.34375 46L36.59375 46L36.875 45.5C37.199219 44.925781 44.800781 31.214844 45.90625 16.34375C46.027344 14.015625 44.460938 11.859375 42.15625 11.21875L36.125 9.6875L36 10.625C35.671875 15.59375 31.164063 21 25 21C18.835938 21 14.335938 15.601563 14 10.5625 Z M 25 21.1875L28.59375 24.8125L25 30.3125L21.40625 24.8125Z" />
</svg>