<svg xmlns="http://www.w3.org/2000/svg" viewBox="0 0 50 50" width="500" height="500">
  <path d="M47.752,3.695c-0.188-0.243-0.477-0.387-0.783-0.39L27.142,3.132c-0.262,0.033-0.564,0.12-0.756,0.335c-0.192,0.216-0.281,0.504-0.245,0.79c0.009,0.068,0.877,6.964,1.824,16.15c0.615,5.958-0.021,7.313-0.787,8.274c-0.552,0.692-1.509,1.204-2.957,1.978c-1.251,0.669-2.809,1.5-4.808,2.809l-0.49,0.327c-1.025,0.691-2.74,1.85-4.568,2.629c-2.182,0.932-4.176,1.976-4.597,2.199c-0.374,0.118-2.281,0.682-4.798,0.682c-1.218,0-2.152,0.952-2.327,2.368c-0.249,2.021,1.036,4.452,3.973,5.186c0.877,0.219,1.702,0.11,2.573-0.006c0.705-0.094,1.429-0.191,2.331-0.148c0.539,0.024,1.203,0.13,1.906,0.24c1.069,0.169,2.282,0.36,3.544,0.36c2.571,0,4.386-0.26,6.142-0.51c1.764-0.252,3.43-0.49,5.858-0.49c2.275,0,3.236,0.215,4.254,0.441c1.229,0.274,2.499,0.559,5.746,0.559c5.537,0,7-3.925,7-6c0-1.828-0.378-3.584-0.815-5.616c-0.555-2.579-1.185-5.504-1.185-9.384c0-4.151,1.298-11.267,3.969-21.753C48.005,4.254,47.939,3.938,47.752,3.695z M39,33.312c0,2.548-2.019,4.65-4.501,4.688c0,0-0.001,0-0.002,0c-3.458,0-4.401-2.561-4.44-2.67c-0.184-0.521,0.09-1.092,0.61-1.276c0.522-0.18,1.092,0.089,1.276,0.61C31.991,34.786,32.521,36,34.404,36C35.865,35.979,37,34.773,37,33.312V30c0-0.553,0.447-1,1-1s1,0.447,1,1V33.312z" />
</svg>