
<svg xmlns="http://www.w3.org/2000/svg" viewBox="0 0 30 30" width="480" height="480">
  <path d="M15 3 A 2 2 0 0 0 13.001953 4.953125 A 2 2 0 0 0 11.173828 3.7617188 A 2 2 0 0 0 9.1738281 5.7617188 A 2 2 0 0 0 9.3066406 6.4824219 A 2 2 0 0 0 7.9296875 5.9296875 A 2 2 0 0 0 5.9296875 7.9296875 A 2 2 0 0 0 6.4863281 9.3105469 A 2 2 0 0 0 5.7617188 9.1738281 A 2 2 0 0 0 3.7617188 11.173828 A 2 2 0 0 0 4.9570312 13.001953 A 2 2 0 0 0 3 15 A 2 2 0 0 0 4.953125 16.998047 A 2 2 0 0 0 3.7617188 18.826172 A 2 2 0 0 0 5.7617188 20.826172 A 2 2 0 0 0 6.484375 20.689453 A 2 2 0 0 0 5.9296875 22.070312 A 2 2 0 0 0 7.9296875 24.070312 A 2 2 0 0 0 9.3105469 23.513672 A 2 2 0 0 0 9.1738281 24.238281 A 2 2 0 0 0 11.173828 26.238281 A 2 2 0 0 0 13.001953 25.042969 A 2 2 0 0 0 15 27 A 2 2 0 0 0 16.998047 25.046875 A 2 2 0 0 0 18.826172 26.238281 A 2 2 0 0 0 20.826172 24.238281 A 2 2 0 0 0 20.693359 23.517578 A 2 2 0 0 0 22.070312 24.070312 A 2 2 0 0 0 24.070312 22.070312 A 2 2 0 0 0 23.513672 20.689453 A 2 2 0 0 0 24.238281 20.826172 A 2 2 0 0 0 26.238281 18.826172 A 2 2 0 0 0 25.042969 16.998047 A 2 2 0 0 0 27 15 A 2 2 0 0 0 25.046875 13.001953 A 2 2 0 0 0 26.238281 11.173828 A 2 2 0 0 0 24.238281 9.1738281 A 2 2 0 0 0 23.515625 9.3105469 A 2 2 0 0 0 24.070312 7.9296875 A 2 2 0 0 0 22.070312 5.9296875 A 2 2 0 0 0 20.689453 6.4863281 A 2 2 0 0 0 20.826172 5.7617188 A 2 2 0 0 0 18.826172 3.7617188 A 2 2 0 0 0 16.998047 4.9570312 A 2 2 0 0 0 15 3 z M 16.828125 5.8046875 A 2 2 0 0 0 18.826172 7.7617188 A 2 2 0 0 0 20.207031 7.2050781 A 2 2 0 0 0 20.070312 7.9296875 A 2 2 0 0 0 22.070312 9.9296875 A 2 2 0 0 0 22.792969 9.7929688 A 2 2 0 0 0 22.238281 11.173828 A 2 2 0 0 0 24.191406 13.171875 A 2 2 0 0 0 23 15 A 2 2 0 0 0 24.195312 16.828125 A 2 2 0 0 0 22.238281 18.826172 A 2 2 0 0 0 22.794922 20.207031 A 2 2 0 0 0 22.070312 20.070312 A 2 2 0 0 0 20.070312 22.070312 A 2 2 0 0 0 20.207031 22.794922 A 2 2 0 0 0 18.826172 22.238281 A 2 2 0 0 0 16.828125 24.191406 A 2 2 0 0 0 15 23 A 2 2 0 0 0 13.171875 24.195312 A 2 2 0 0 0 11.173828 22.238281 A 2 2 0 0 0 9.7929688 22.794922 A 2 2 0 0 0 9.9296875 22.070312 A 2 2 0 0 0 7.9296875 20.070312 A 2 2 0 0 0 7.2070312 20.207031 A 2 2 0 0 0 7.7617188 18.826172 A 2 2 0 0 0 5.8085938 16.828125 A 2 2 0 0 0 7 15 A 2 2 0 0 0 5.8046875 13.171875 A 2 2 0 0 0 7.7617188 11.173828 A 2 2 0 0 0 7.2050781 9.7929688 A 2 2 0 0 0 7.9296875 9.9296875 A 2 2 0 0 0 9.9296875 7.9296875 A 2 2 0 0 0 9.7929688 7.2050781 A 2 2 0 0 0 11.173828 7.7617188 A 2 2 0 0 0 13.171875 5.8085938 A 2 2 0 0 0 15 7 A 2 2 0 0 0 16.828125 5.8046875 z" />
</svg>