
<svg xmlns="http://www.w3.org/2000/svg" viewBox="0 0 50 50" width="500" height="500">
  <path d="M11 3C8.2504839 3 6 5.2504839 6 8L4 8 A 1.0001 1.0001 0 1 0 4 10L6 10C7.0930628 10 8 9.0930628 8 8C8 6.3315161 9.3315161 5 11 5C12.668484 5 14 6.3315161 14 8L14 15.175781 A 3 3 0 0 0 12.841797 20.078125L5.3828125 35L11.152344 35L13.548828 20.621094 A 3 3 0 0 0 15 21 A 3 3 0 0 0 16.451172 20.625L18.847656 35L24.617188 35L17.158203 20.082031 A 3 3 0 0 0 16 15.171875L16 8C16 5.2504839 13.749516 3 11 3 z M 33 3C30.250484 3 28 5.2504839 28 8L26 8 A 1.0001 1.0001 0 1 0 26 10L28 10C29.093063 10 30 9.0930628 30 8C30 6.3315161 31.331516 5 33 5C34.668484 5 36 6.3315161 36 8L36 15.175781 A 3 3 0 0 0 34.841797 20.078125L27.382812 35L33.152344 35L35.548828 20.621094 A 3 3 0 0 0 37 21 A 3 3 0 0 0 38.451172 20.625L40.847656 35L46.617188 35L39.158203 20.082031 A 3 3 0 0 0 38 15.171875L38 8C38 5.2504839 35.749516 3 33 3 z M 15 24.082031L13.070312 35.65625L15 37.585938L16.929688 35.65625L15 24.082031 z M 37 24.082031L35.070312 35.65625L37 37.585938L38.929688 35.65625L37 24.082031 z M 5.5859375 37L14 45.414062L14 39.414062L11.585938 37L5.5859375 37 z M 18.414062 37L16 39.414062L16 45.414062L24.414062 37L18.414062 37 z M 27.585938 37L36 45.414062L36 39.414062L33.585938 37L27.585938 37 z M 40.414062 37L38 39.414062L38 45.414062L46.414062 37L40.414062 37 z" />
</svg>